<?xml version="1.0" encoding="iso-8859-1"?>
<!-- Generator: Adobe Illustrator 19.0.0, SVG Export Plug-In . SVG Version: 6.00 Build 0)  -->
<svg version="1.1" id="Layer_1" xmlns="http://www.w3.org/2000/svg" xmlns:xlink="http://www.w3.org/1999/xlink" x="0px" y="0px"
	 viewBox="0 0 512.001 512.001" style="enable-background:new 0 0 512.001 512.001;" xml:space="preserve">
<path style="fill:#771700;" d="M370.604,170.865H340.51V150.52H100.174v240.986c0,66.272,54.077,120.495,120.165,120.495h0.006
	c62.352,0,113.996-48.259,119.644-109.364h30.614c22.731,0,41.223-18.529,41.223-41.305V212.17
	C411.826,189.394,393.334,170.865,370.604,170.865z M389.566,361.332c0,10.5-8.507,19.044-18.962,19.044H340.51V193.126h30.093
	c10.456,0,18.962,8.544,18.962,19.044V361.332z"/>
<path style="fill:#981700;" d="M100.174,391.506V150.52h150.261v240.986c0,50.324-31.183,93.693-75.129,111.655
	C131.361,485.199,100.174,441.83,100.174,391.506z"/>
<path style="fill:#B76700;" d="M295.206,150.52v44.93c0,12.349-10.072,22.447-22.384,22.447c-12.315,0-22.389-10.098-22.389-22.447
	v36.773c0,12.348-10.07,22.447-22.382,22.447c-12.315,0-22.387-10.098-22.387-22.447V150.52H295.206z"/>
<path style="fill:#FFBB5E;" d="M253.11,102.086c3.278,3.665,2.964,9.295-0.701,12.573c-1.699,1.519-3.82,2.267-5.933,2.267
	c-2.446,0-4.882-1.002-6.64-2.968c-15.8-17.668-13.171-50.381-0.929-68.689c6.212-9.291,8.902-23.226,6.695-34.676
	c-0.93-4.828,2.229-9.498,7.058-10.428c4.829-0.929,9.499,2.229,10.429,7.058c3.083,15.993-0.598,34.812-9.377,47.944
	C244.521,68.908,244.223,92.15,253.11,102.086z M210.813,7.224c-0.928-4.828-5.595-7.992-10.426-7.062
	c-4.829,0.929-7.991,5.597-7.062,10.426c2.204,11.458-0.488,25.393-6.701,34.679c-12.239,18.305-14.867,51.016,0.928,68.689
	c1.76,1.968,4.195,2.97,6.643,2.97c2.111,0,4.232-0.747,5.93-2.265c3.666-3.277,3.982-8.907,0.706-12.573
	c-8.884-9.941-8.588-33.182,0.597-46.92C210.207,42.045,213.892,23.225,210.813,7.224z"/>
<g>
</g>
<g>
</g>
<g>
</g>
<g>
</g>
<g>
</g>
<g>
</g>
<g>
</g>
<g>
</g>
<g>
</g>
<g>
</g>
<g>
</g>
<g>
</g>
<g>
</g>
<g>
</g>
<g>
</g>
</svg>
