<svg height="512pt" viewBox="-35 0 512 512" width="512pt" xmlns="http://www.w3.org/2000/svg"><path d="m378.996094 493.558594h-183.054688l-54.132812-94.21875-61.359375-.609375c-5.996094-.058594-10.835938-4.953125-10.835938-10.949219v-79.808594h-37.375c-5.894531 0-10.726562-4.644531-10.953125-10.539062-.957031-25.671875-.164062-92.726563 29.691406-139.640625.464844-.722657.925782-1.433594 1.390626-2.152344 8.765624-13.199219 23.753906-25.425781 31.761718-35.152344h222.96875c4.78125 11.847657 7.996094 24.46875 9.355469 37.632813 1.277344 12.15625.96875 24.777344-1.132813 37.644531l-27.0625 158.246094c-.433593 2.554687.132813 5.179687 1.578126 7.335937zm0 0" fill="#fecbaa"/><path d="m379 493.558594h-25.21875l-89.164062-132.21875c-1.449219-2.144532-2.007813-4.773438-1.574219-7.324219l27.054687-158.257813c2.113282-12.863281 2.417969-25.480468 1.144532-37.636718-1.363282-13.167969-4.570313-25.785156-9.359376-37.628906h25.214844c4.792969 11.84375 7.996094 24.460937 9.363282 37.628906 1.269531 12.15625.964843 24.773437-1.144532 37.636718l-27.058594 158.257813c-.429687 2.550781.128907 5.179687 1.578126 7.324219zm0 0" fill="#ffae85"/><path d="m316.457031 158.121094c-.917969.109375-1.84375.167968-2.789062.167968h-254.335938c-2.828125 0-5.621093-.160156-8.359375-.492187.460938-.726563.925782-1.441406 1.398438-2.15625 8.765625-13.195313 23.75-25.421875 31.757812-35.152344h222.972656c4.78125 11.847657 7.996094 24.46875 9.355469 37.632813zm0 0" fill="#ffae85"/><path d="m315.328125 195.761719-25.765625 150.644531c-1.042969 6.089844-7.273438 9.816406-13.128906 7.851562l-73.453125-24.625c-4.460938-1.503906-7.472657-5.683593-7.472657-10.386718v-138.300782h-36.792968c-2.628906 0-5.046875-.929687-6.929688-2.480468-2.460937-2.003906-4.019531-5.054688-4.019531-8.46875v-52.296875h158.175781c10.082032 23.46875 13.929688 50.191406 9.386719 78.0625zm0 0" fill="#c97f4c"/><path d="m356.996094 438.988281c-22.449219 7.757813-118.839844 39.894531-184.324219 43.179688-5.8125.292969-10.363281 5.109375-10.363281 10.929687v7.953125c0 6.046875 4.902344 10.949219 10.953125 10.949219h223.792969c6.410156 0 11.425781-5.476562 10.914062-11.871094-1.152344-14.375-8.425781-39.25-41.507812-60.019531-2.832032-1.777344-6.304688-2.214844-9.464844-1.121094zm0 0" fill="#f80"/><path d="m313.671875 146.203125h-254.339844c-32.769531 0-59.332031-26.5625-59.332031-59.332031v-54.730469c0-6.050781 4.902344-10.953125 10.949219-10.953125h220.550781c51.429688 0 93.121094 41.695312 93.121094 93.121094v20.945312c0 6.046875-4.902344 10.949219-10.949219 10.949219zm0 0" fill="#aa6344"/><path d="m150.75 312.113281c0 12.828125-4.523438 23.5-13.453125 31.699219-16.816406 15.453125-45.1875 17.574219-59.527344 17.574219-3.984375 0-6.890625-.164063-8.15625-.246094v-15.484375c.214844 0 .433594.011719.648438.03125.289062.03125 10.25.792969 22.332031-.585938 15.320312-1.761718 27.167969-6.140624 34.265625-12.683593 5.675781-5.230469 8.4375-11.867188 8.4375-20.304688 0-4.265625 3.460937-7.726562 7.726563-7.726562 4.265624 0 7.726562 3.460937 7.726562 7.726562zm0 0" fill="#ffae85"/><path d="m387.742188 139.390625c0 76.984375-62.40625 139.390625-139.390626 139.390625-76.984374 0-139.390624-62.40625-139.390624-139.390625s62.40625-139.390625 139.390624-139.390625c76.984376 0 139.390626 62.40625 139.390626 139.390625zm0 0" fill="#9be058"/><path d="m387.742188 139.386719c0 76.984375-62.402344 139.394531-139.390626 139.394531-76.984374 0-139.386718-62.410156-139.386718-139.394531 0-4.015625.167968-7.988281.503906-11.917969 6.050781 71.398438 65.910156 127.464844 138.882812 127.464844 72.972657 0 132.832032-56.066406 138.882813-127.464844.339844 3.929688.507813 7.902344.507813 11.917969zm0 0" fill="#1cc939"/><path d="m92.425781 241.09375c-7.726562 0-14.644531-4.308594-18.058593-11.242188-1.886719-3.828124-.308594-8.460937 3.519531-10.34375 3.828125-1.882812 8.460937-.308593 10.34375 3.519532.792969 1.613281 2.402343 2.617187 4.195312 2.617187s3.398438-1.003906 4.191407-2.617187c1.886718-3.828125 6.519531-5.402344 10.347656-3.519532 3.824218 1.882813 5.402344 6.515626 3.515625 10.34375-3.410157 6.933594-10.332031 11.242188-18.054688 11.242188zm0 0" fill="#aa6344"/><path d="m324.871094 193.375v13.203125c0 5.191406-4.214844 9.402344-9.402344 9.402344h-90.664062c-5.191407 0-9.40625-4.214844-9.40625-9.402344v-13.203125c0-1.449219.332031-2.828125.921874-4.054688 1.515626-3.167968 4.738282-5.347656 8.484376-5.347656h90.664062c3.742188 0 6.96875 2.179688 8.480469 5.347656.59375 1.226563.921875 2.605469.921875 4.054688zm0 0" fill="#bddff4"/><path d="m323.949219 189.320312c-16.652344 7.9375-34.980469 12.140626-53.8125 12.140626-18.835938 0-37.160157-4.203126-53.816407-12.140626 1.515626-3.167968 4.742188-5.347656 8.484376-5.347656h90.664062c3.742188 0 6.96875 2.179688 8.480469 5.347656zm0 0" fill="#9cc6db"/><path d="m403.683594 170.53125h-60.855469c-4.269531 0-7.726563-3.457031-7.726563-7.722656 0-4.269532 3.460938-7.726563 7.726563-7.726563h60.855469c12.96875 0 23.519531-10.550781 23.519531-23.519531s-10.550781-23.519531-23.519531-23.519531h-23.625c-4.269532 0-7.726563-3.460938-7.726563-7.726563 0-4.269531 3.457031-7.726562 7.726563-7.726562h23.625c21.488281 0 38.972656 17.484375 38.972656 38.972656s-17.484375 38.96875-38.972656 38.96875zm0 0" fill="#e3f4ff"/><path d="m374.0625 76.429688c5.484375 0 9.859375 4.679687 9.375 10.140624-5.128906 58.070313-53.898438 103.609376-113.300781 103.609376-59.402344 0-108.171875-45.539063-113.304688-103.609376-.484375-5.460937 3.890625-10.140624 9.375-10.140624zm0 0" fill="#e3f4ff"/><path d="m383.441406 86.574219c-5.132812 58.0625-53.90625 103.601562-113.304687 103.601562-3.914063 0-7.789063-.195312-11.597657-.589843 54.050782-5.464844 96.910157-48.773438 101.707032-103.011719.480468-5.464844-3.894532-10.144531-9.375-10.144531h23.1875c5.492187 0 9.863281 4.679687 9.382812 10.144531zm0 0" fill="#bddff4"/><path d="m255.117188 190.183594c0 17.914062-10.722657 32.449218-23.953126 32.449218-13.226562 0-23.949218-14.535156-23.949218-32.449218 0-14.269532 6.789062-26.375 16.222656-30.722656 2.429688-1.121094 5.027344-1.730469 7.726562-1.730469 2.699219 0 5.296876.609375 7.726563 1.730469 9.4375 4.347656 16.226563 16.453124 16.226563 30.722656zm0 0" fill="#aa6344"/><path d="m238.890625 159.460938v38.960937c0 4.265625-3.460937 7.726563-7.726563 7.726563-4.273437 0-7.726562-3.460938-7.726562-7.726563v-38.960937c2.433594-1.121094 5.027344-1.730469 7.726562-1.730469 2.699219 0 5.296876.609375 7.726563 1.730469zm0 0" fill="#914d36"/><path d="m200.199219 207.117188c-12.683594 12.671874-30.535157 15.359374-39.890625 6.007812-9.355469-9.355469-6.664063-27.207031 6.015625-39.878906 10.085937-10.085938 23.449219-13.855469 33.191406-10.25 2.503906.917968 4.769531 2.316406 6.6875 4.234375 1.914063 1.914062 3.328125 4.183593 4.234375 6.695312 3.605469 9.746094-.164062 23.105469-10.238281 33.191407zm0 0" fill="#c97f4c"/><path d="m210.4375 173.925781-27.546875 27.546875c-1.503906 1.503906-3.480469 2.253906-5.460937 2.253906-1.976563 0-3.953126-.75-5.457032-2.253906-3.019531-3.019531-3.019531-7.914062 0-10.929687l27.546875-27.546875c2.5.914062 4.769531 2.316406 6.683594 4.234375 1.917969 1.914062 3.328125 4.179687 4.234375 6.695312zm0 0" fill="#aa6344"/></svg>