<?xml version="1.0" encoding="iso-8859-1"?>
<!-- Generator: Adobe Illustrator 21.0.0, SVG Export Plug-In . SVG Version: 6.00 Build 0)  -->
<svg xmlns="http://www.w3.org/2000/svg" xmlns:xlink="http://www.w3.org/1999/xlink" version="1.1" id="Capa_1" x="0px" y="0px" viewBox="0 0 512.019 512.019" style="enable-background:new 0 0 512.019 512.019;" xml:space="preserve" width="512" height="512">
<g>
	<path style="fill:#9C5D35;" d="M256.01,0c145.942,0,190.583,262.175,190.583,393.756c0,120.109-377.572,111.588-380.996,0   S110.067,0,256.01,0z"/>
	<rect x="224.874" y="317.714" style="fill:#EEAF96;" width="62.271" height="99.634"/>
	<g>
		<path style="fill:#FFC6A9;" d="M143.922,228.043v-83.524c0-58.421,47.36-105.781,105.781-105.781h12.615    c58.421,0,105.781,47.36,105.781,105.781v83.524c0,61.905-50.184,112.088-112.088,112.088h0    C194.105,340.131,143.922,289.948,143.922,228.043z"/>
		<path style="fill:#EEAF96;" d="M262.317,38.739h-12.615c-4.189,0-44.01,56.569,24.704,96.859    c34.797,20.403,28.307,52.172,28.307,75.363v17.082c0,55.539-12.374,101.635-65.385,110.53c6.076,1.02,12.315,1.558,18.681,1.558    h0c61.905,0,112.088-50.184,112.088-112.088v-83.524C368.098,86.098,320.738,38.739,262.317,38.739z"/>
	</g>
	<path style="fill:#FDD835;" d="M317.821,417.348H194.199V373.64c0-2.209,1.791-4,4-4h115.622c2.209,0,4,1.791,4,4V417.348z"/>
	<path style="fill:#FBC02D;" d="M286.915,369.64v47.708h30.905V373.64c0-2.209-1.791-4-4-4H286.915z"/>
	<g>
		<path style="fill:#71F6FC;" d="M339.936,247.477c0,14.662-7.677,18.825-17.147,18.825c-9.47,0-17.147-4.163-17.147-18.825    c0-12.509,12.48-28.618,16.146-33.08c0.557-0.678,1.445-0.678,2.002,0C327.455,218.859,339.936,234.968,339.936,247.477z"/>
		<path style="fill:#71F6FC;" d="M206.378,247.477c0,14.662-7.677,18.825-17.147,18.825s-17.147-4.163-17.147-18.825    c0-12.509,12.48-28.618,16.146-33.08c0.557-0.678,1.445-0.678,2.002,0C193.898,218.859,206.378,234.968,206.378,247.477z"/>
	</g>
	<path style="fill:#837A91;" d="M128.944,512.019H74.353c-11.235,0-20.343-9.108-20.343-20.343v-14.48   c0-31.995,25.937-57.931,57.931-57.931h17.003c11.235,0,20.343,9.108,20.343,20.343v52.069   C149.288,502.911,140.18,512.019,128.944,512.019z"/>
	<path style="fill:#6B6477;" d="M127.947,419.264h-13.166c-4.526,0-8.931,0.464-13.175,1.316   c7.985,2.805,13.658,9.831,13.658,18.076v53.97c0,10.71-9.555,19.393-21.341,19.393h34.024c11.786,0,21.341-8.682,21.341-19.393   v-53.97C149.288,427.947,139.733,419.264,127.947,419.264z"/>
	<path style="fill:#837A91;" d="M437.916,512.019h-52.767c-11.097,0-20.094-8.996-20.094-20.094v-52.568   c0-11.097,8.996-20.094,20.094-20.094h15.64c31.602,0,57.221,25.619,57.221,57.221v15.441   C458.01,503.023,449.013,512.019,437.916,512.019z"/>
	<path style="fill:#6B6477;" d="M398.721,419.264h-12.845c-2.646,0-5.167,0.478-7.495,1.316   c26.562,5.471,46.436,27.521,46.436,53.908v18.138c0,10.71-9.322,19.393-20.82,19.393h33.194c11.499,0,20.82-8.682,20.82-19.393   v-18.138C458.01,443.989,431.465,419.264,398.721,419.264z"/>
	<path style="fill:#837A91;" d="M365.38,512H146.639c-3.314,0-6-2.686-6-6v-76.608c0-15.932,12.915-28.847,28.847-28.847h173.047   c15.932,0,28.847,12.915,28.847,28.847V506C371.38,509.314,368.694,512,365.38,512z"/>
	<path style="fill:#6B6477;" d="M342.535,400.545h-30.912c15.933,0,28.848,12.914,28.848,28.845V512h24.909c3.314,0,6-2.686,6-6   v-76.61C371.38,413.459,358.466,400.545,342.535,400.545z"/>
	<path style="fill:#F2F0F0;" d="M324.25,396.684c-2.132-3.552-6.742-4.701-10.29-2.569l-57.95,34.793l-57.95-34.793   c-3.55-2.132-8.158-0.982-10.29,2.569c-2.133,3.551-0.982,8.159,2.569,10.291l61.811,37.111c1.188,0.713,2.524,1.07,3.86,1.07   s2.673-0.356,3.86-1.07l61.811-37.111C325.232,404.843,326.383,400.235,324.25,396.684z"/>
	<path style="fill:#B0693C;" d="M395.743,134.744c0,0-80.725,9.391-139.734,9.391c-59.009,0-139.734-9.391-139.734-9.391   C141.433,27.423,256.01,26.874,256.01,26.874S370.586,27.423,395.743,134.744z"/>
	<path style="fill:#9C5D35;" d="M359.753,138.401c21.356-1.955,35.991-3.657,35.991-3.657   C370.586,27.423,256.01,26.874,256.01,26.874s-6.379,0.032-16.452,1.487C268.886,33.145,334.717,53.339,359.753,138.401z"/>
	<ellipse style="fill:#FF7043;" cx="256.01" cy="458.26" rx="15.453" ry="20.604"/>
</g>















</svg>
