<?xml version="1.0" encoding="iso-8859-1"?>
<!-- Generator: Adobe Illustrator 19.0.0, SVG Export Plug-In . SVG Version: 6.00 Build 0)  -->
<svg version="1.1" id="Layer_1" xmlns="http://www.w3.org/2000/svg" xmlns:xlink="http://www.w3.org/1999/xlink" x="0px" y="0px"
	 viewBox="0 0 512 512" style="enable-background:new 0 0 512 512;" xml:space="preserve">
<path style="fill:#FF9A52;" d="M322.95,256c0,36.975-29.974,66.95-66.95,66.95l-33.391,94.525L256,512c141.39,0,256-114.61,256-256
	H322.95z"/>
<path style="fill:#700D00;" d="M512,256c-47.26,0-47.26,33.391-94.52,33.391S370.221,256,322.95,256
	c0-36.975-29.974-66.95-66.95-66.95l-33.391-94.525L256,0C397.39,0,512,114.61,512,256z"/>
<path style="fill:#F7CD95;" d="M189.05,256H0c0,141.39,114.61,256,256,256V322.95C219.025,322.95,189.05,292.975,189.05,256z"/>
<path style="fill:#8E4238;" d="M256,0v189.05c-36.975,0-66.95,29.974-66.95,66.95c-47.271,0-47.271,33.391-94.531,33.391
	S47.26,256,0,256C0,114.61,114.61,0,256,0z"/>
<rect x="86.929" y="143.961" style="fill:#FFFFFF;" width="33.391" height="33.391"/>
<rect x="391.68" y="143.961" style="fill:#F9EBDB;" width="33.391" height="33.391"/>
<rect x="153.711" y="88.309" style="fill:#FFFFFF;" width="33.391" height="33.391"/>
<g>
</g>
<g>
</g>
<g>
</g>
<g>
</g>
<g>
</g>
<g>
</g>
<g>
</g>
<g>
</g>
<g>
</g>
<g>
</g>
<g>
</g>
<g>
</g>
<g>
</g>
<g>
</g>
<g>
</g>
</svg>
