<?xml version="1.0"?>
<svg xmlns="http://www.w3.org/2000/svg" id="Layer_1" data-name="Layer 1" viewBox="0 0 512 512" width="512" height="512"><title>scan</title><path d="M480.3,426.2a3.978,3.978,0,0,1,0,5.65L428.16,484a3.987,3.987,0,0,1-5.65,0c-2.67-2.66-6.87-6.86-11.07-11.06-6.95-6.95-3.83-20.32,4.85-29.01l26.08-26.08c8.69-8.68,19.92-9.66,26.87-2.71Z" style="fill:#f8ec7d"/><path d="M443.76,416.46l-1.39,1.39-26.08,26.08-2.69,2.69L294.82,327.83l-.32-.42a25.217,25.217,0,0,0,2.89-2.48l26.08-26.08c.45-.45.87-.91,1.27-1.38l.24.21Z" style="fill:#e48e66"/><path d="M324.74,270.63c6.59,6.59,7.35,18.25,0,26.84-.4.47-.82.93-1.27,1.38l-26.08,26.08a25.217,25.217,0,0,1-2.89,2.48c-8.79,6.48-21.33,7.25-27.56,1.02-6.95-6.94-15.86-15.85-15.86-15.85l-.04-.07a153.295,153.295,0,0,0,58.05-57.2l.79.46S317.79,263.69,324.74,270.63Z" style="fill:#f8ec7d"/><path d="M284.74,71.47a152.431,152.431,0,1,1-215.57,0A152.472,152.472,0,0,1,284.74,71.47ZM256.26,259.12a112.547,112.547,0,1,0-159.16,0A112.557,112.557,0,0,0,256.26,259.12Z" style="fill:#e48e66"/></svg>
