<?xml version="1.0"?>
<svg xmlns="http://www.w3.org/2000/svg" id="Layer_1" data-name="Layer 1" viewBox="0 0 512 512" width="512" height="512"><title>search location map pin pointer</title><path d="M446.56,398.84a30.147,30.147,0,0,1,0,42.63l-5.09,5.09a30.147,30.147,0,0,1-42.63,0l-74.12-74.12,47.72-47.72Z" style="fill:#e48e66"/><path d="M284.31,93.43a134.973,134.973,0,1,1-190.88,0A135.027,135.027,0,0,1,284.31,93.43ZM251.88,197.12a66.281,66.281,0,0,0,4-27.24c-2.28-34.13-29.54-64.37-67.01-64.37s-64.73,30.24-67.01,64.37a66.281,66.281,0,0,0,4,27.24,71.626,71.626,0,0,0,15.35,24.34l47.66,50.77,47.66-50.77A71.626,71.626,0,0,0,251.88,197.12Z" style="fill:#f8ec7d"/><path d="M255.88,169.88a66.281,66.281,0,0,1-4,27.24,71.626,71.626,0,0,1-15.35,24.34l-47.66,50.77-47.66-50.77a71.626,71.626,0,0,1-15.35-24.34,66.281,66.281,0,0,1-4-27.24c2.28-34.13,29.54-64.37,67.01-64.37S253.6,135.75,255.88,169.88Zm-38.23-.8c0-16.32-12.89-29.55-28.78-29.55s-28.78,13.23-28.78,29.55,12.88,29.55,28.78,29.55S217.65,185.4,217.65,169.08Z" style="fill:#e48e66"/><ellipse cx="188.87" cy="169.08" rx="28.78" ry="29.55" style="fill:#f8ec7d"/><rect x="299.91" y="276.989" width="12" height="57.841" transform="translate(-126.712 305.913) rotate(-45)" style="fill:#e48e66"/><polygon points="324.72 324.72 348.58 300.86 372.44 324.72 324.72 372.44 300.86 348.58 324.72 324.72" style="fill:#6fe3ff"/></svg>
