<?xml version="1.0"?>
<svg xmlns="http://www.w3.org/2000/svg" id="Layer_1" data-name="Layer 1" viewBox="0 0 512 512" width="512" height="512"><title>search map,location</title><circle cx="314.08" cy="329.39" r="74.75" style="fill:#6fe3ff"/><path d="M344.68,174.9a152.06,152.06,0,0,1-6.78,55.52l-.02.06A101.748,101.748,0,0,0,223.36,375.41l-.01.01-32.95,35.1L80.67,293.64c-15.26-16.24-27.7-35.1-35.34-56.03a152.931,152.931,0,0,1-9.21-62.71A162.779,162.779,0,0,1,82.88,71.32,150.189,150.189,0,0,1,190.4,26.69C276.66,26.69,339.42,96.31,344.68,174.9Zm-88.6-1.86c0-37.25-29.41-67.44-65.68-67.44s-65.69,30.19-65.69,67.44,29.41,67.45,65.69,67.45S256.08,210.29,256.08,173.04Z" style="fill:#e48e66"/><path d="M416.07,429.76a5.984,5.984,0,0,1-4.252-1.766l-.119-.12-26.112-26.112a6,6,0,0,1,8.486-8.485l26.248,26.248a6,6,0,0,1-4.251,10.235Z" style="fill:#e48e66"/><path d="M337.88,230.48a101.8,101.8,0,1,1-23.8-2.8A101.763,101.763,0,0,1,337.88,230.48Zm50.95,98.91a74.75,74.75,0,1,0-74.75,74.75A74.754,74.754,0,0,0,388.83,329.39Z" style="fill:#f8ec7d"/><path d="M415.95,423.64l9.9-9.9,45.96,45.96a15,15,0,1,1-21.21,21.21l-45.96-45.96Z" style="fill:#6fe3ff"/></svg>
