<svg height="419pt" viewBox="0 -10 419.55192 419" width="419pt" xmlns="http://www.w3.org/2000/svg"><path d="m409.550781 155.410156-99.890625 97.371094 23.582032 137.488281-123.46875-64.921875-123.472657 64.921875 23.582031-137.488281-99.890624-97.371094 138.050781-20.0625 61.730469-125.078125 61.730468 125.078125zm0 0" fill="#e48e66"/><path d="m410.988281 145.511719-132.84375-19.296875-59.402343-120.367188c-1.683594-3.410156-5.160157-5.570312-8.964844-5.570312-3.808594 0-7.285156 2.160156-8.96875 5.570312l-59.398438 120.367188-132.847656 19.296875c-3.765625.550781-6.898438 3.1875-8.074219 6.808593-1.175781 3.621094-.195312 7.59375 2.53125 10.25l96.125 93.699219-22.699219 132.308594c-.644531 3.753906.898438 7.542969 3.976563 9.78125 3.082031 2.238281 7.164063 2.53125 10.53125.761719l118.820313-62.472656 118.816406 62.472656c3.367187 1.773437 7.449218 1.476562 10.53125-.757813 3.078125-2.238281 4.621094-6.03125 3.976562-9.78125l-22.691406-132.308593 96.125-93.703126c2.726562-2.65625 3.707031-6.628906 2.53125-10.25-1.175781-3.621093-4.304688-6.257812-8.074219-6.804687zm-108.304687 100.105469c-2.359375 2.300781-3.433594 5.609374-2.878906 8.851562l20.15625 117.519531-105.535157-55.492187c-2.914062-1.53125-6.394531-1.53125-9.308593 0l-105.535157 55.492187 20.15625-117.519531c.554688-3.242188-.519531-6.550781-2.875-8.851562l-85.382812-83.226563 118-17.144531c3.257812-.472656 6.074219-2.519532 7.53125-5.46875l52.761719-106.914063 52.761718 106.914063c1.457032 2.949218 4.273438 4.996094 7.527344 5.46875l118 17.144531zm0 0" fill="#63316d"/></svg>