<?xml version="1.0"?>
<svg xmlns="http://www.w3.org/2000/svg" id="Layer_1" data-name="Layer 1" viewBox="0 0 512 512" width="512" height="512"><title>Coffee shop </title><path d="M339.64,205.74v55.05H308.19l-.36-.05a39.406,39.406,0,0,0,.36-5.35V205.74Z" style="fill:#f8ec7d"/><path d="M432.86,205.9a175.565,175.565,0,0,1-10.56,71.88c-8.76,24-23.03,45.61-40.51,64.24L256,476,130.21,342.02c-17.48-18.63-31.75-40.24-40.51-64.24A175.565,175.565,0,0,1,79.14,205.9C85.17,115.8,157.11,36,256,36S426.83,115.8,432.86,205.9Zm-43.94,7.84c0-75.38-59.51-136.49-132.92-136.49S123.08,138.36,123.08,213.74,182.59,350.23,256,350.23,388.92,289.12,388.92,213.74Z" style="fill:#e48e66"/><path d="M256,77.25c73.41,0,132.92,61.11,132.92,136.49S329.41,350.23,256,350.23,123.08,289.12,123.08,213.74,182.59,77.25,256,77.25Z" style="fill:#f8ec7d"/><path d="M339.64,266.79H308.19a6,6,0,0,1,0-12h25.45V211.74H308.19a6,6,0,0,1,0-12h31.45a6,6,0,0,1,6,6v55.05A6,6,0,0,1,339.64,266.79Z" style="fill:#e48e66"/><path d="M212.01,177.76a6,6,0,0,1-6-6c0-7.7,5.238-11.612,8.7-14.2,3.268-2.439,3.886-3.168,3.886-4.592s-.617-2.145-3.881-4.58c-3.468-2.588-8.709-6.5-8.709-14.21s5.238-11.612,8.7-14.2c3.268-2.439,3.886-3.169,3.886-4.592a6,6,0,0,1,12,0c0,7.711-5.242,11.622-8.709,14.21-3.265,2.435-3.881,3.163-3.881,4.58s.617,2.153,3.886,4.592c3.465,2.586,8.7,6.5,8.7,14.2s-5.242,11.622-8.709,14.21c-3.265,2.435-3.881,3.163-3.881,4.58A6,6,0,0,1,212.01,177.76Z" style="fill:#e48e66"/><path d="M241.85,177.76a6,6,0,0,1-6-6c0-7.7,5.233-11.61,8.7-14.2,3.265-2.439,3.883-3.168,3.883-4.593s-.617-2.146-3.878-4.582c-3.465-2.588-8.7-6.5-8.7-14.208s5.233-11.61,8.7-14.2c3.265-2.439,3.883-3.169,3.883-4.593a6,6,0,1,1,12,0c0,7.709-5.238,11.62-8.7,14.208-3.262,2.436-3.878,3.164-3.878,4.582s.617,2.154,3.882,4.593c3.464,2.587,8.7,6.5,8.7,14.2s-5.238,11.62-8.7,14.208c-3.262,2.436-3.878,3.164-3.878,4.582A6,6,0,0,1,241.85,177.76Z" style="fill:#e48e66"/><path d="M271.68,177.76a6,6,0,0,1-6-6c0-7.7,5.238-11.612,8.7-14.2,3.268-2.439,3.886-3.168,3.886-4.592s-.617-2.145-3.881-4.58c-3.468-2.588-8.709-6.5-8.709-14.21s5.238-11.612,8.7-14.2c3.268-2.439,3.886-3.169,3.886-4.592a6,6,0,1,1,12,0c0,7.711-5.242,11.622-8.709,14.21-3.265,2.435-3.881,3.163-3.881,4.58s.617,2.153,3.885,4.592c3.466,2.586,8.7,6.5,8.7,14.2s-5.242,11.622-8.709,14.21c-3.265,2.435-3.881,3.163-3.881,4.58A6,6,0,0,1,271.68,177.76Z" style="fill:#e48e66"/><path d="M308.19,205.74v49.65a39.406,39.406,0,0,1-.36,5.35,40,40,0,0,1-39.64,34.65H222.36a40,40,0,0,1-40-40v-70.1H308.19Z" style="fill:#6fe3ff"/></svg>
