<?xml version="1.0"?>
<svg xmlns="http://www.w3.org/2000/svg" id="Layer_1" data-name="Layer 1" viewBox="0 0 512 512" width="512" height="512"><title>map location user pointer</title><path d="M424.71,196.59a168.235,168.235,0,0,1-32.07,98.91L256,484.17,119.36,295.5a168.71,168.71,0,1,1,305.35-98.91Z" style="fill:#e48e66"/><path d="M230.02,280.19l-42.87,13.9a31.192,31.192,0,0,0-12.56,7.69,130.006,130.006,0,1,1,162.82-.01,31.418,31.418,0,0,0-12.56-7.68l-42.87-13.9-.05-.02V256.66a53.564,53.564,0,0,0,8.75-5.92,54.178,54.178,0,0,0,18.71-31.77l3.02-10.38v-.09a14.665,14.665,0,0,0,12.11-14.43,14.971,14.971,0,0,0-.42-3.5,11.04,11.04,0,0,0-9.79-8.39V152.53a58.3,58.3,0,1,0-116.59,0v29.65c-4.41.7-8.59,3.4-9.82,8.39a14.971,14.971,0,0,0-.42,3.5,14.673,14.673,0,0,0,12.11,14.43v.09l3.02,10.38a54.288,54.288,0,0,0,27.46,37.69v23.51Z" style="fill:#f8ec7d"/><path d="M324.85,294.09a31.418,31.418,0,0,1,12.56,7.68,130.007,130.007,0,0,1-162.82.01,31.192,31.192,0,0,1,12.56-7.69l42.87-13.9a54.542,54.542,0,0,0,51.96,0Z" style="fill:#6fe3ff"/><path d="M230.07,256.66a54.288,54.288,0,0,1-27.46-37.69l-3.02-10.38v-.09a14.673,14.673,0,0,1-12.11-14.43,14.971,14.971,0,0,1,.42-3.5c1.23-4.99,5.41-7.69,9.82-8.39.02,0,.03-.01.05-.01,22.6-3.5,20.69-30.19,20.69-30.19a111.513,111.513,0,0,0,12.61.62l.01,1.86c33.41,29.77,83.23,27.85,83.23,27.85v-.13a11.04,11.04,0,0,1,9.79,8.39,14.971,14.971,0,0,1,.42,3.5,14.665,14.665,0,0,1-12.11,14.43v.09l-3.02,10.38a54.178,54.178,0,0,1-18.71,31.77,53.564,53.564,0,0,1-8.75,5.92,54.309,54.309,0,0,1-51.86,0Z" style="fill:#f7caa5"/><path d="M314.31,182.18v.13s-49.82,1.92-83.23-27.85l-.01-1.86a133.5,133.5,0,0,0,31.27-3.6l.05.21s16.44,21.15,51.92,23.43Z" style="fill:#4b5d63"/><path d="M262.34,149a133.5,133.5,0,0,1-31.27,3.6,111.513,111.513,0,0,1-12.61-.62s1.91,26.69-20.69,30.19c-.02,0-.03.01-.05.01V152.53a58.3,58.3,0,0,1,116.59,0v20.11c-35.48-2.28-51.92-23.43-51.92-23.43Z" style="fill:#4b5d63"/><path d="M281.93,280.17l.05.02a54.542,54.542,0,0,1-51.96,0l.05-.02V256.66a54.309,54.309,0,0,0,51.86,0Z" style="fill:#edb288"/></svg>
