<?xml version="1.0"?>
<svg xmlns="http://www.w3.org/2000/svg" id="Layer_1" data-name="Layer 1" viewBox="0 0 512 512" width="512" height="512"><title>eye</title><path d="M366.82,242.13c63.74,32.81,79.65,61.97,79.65,61.97s-46.94,71.18-194.96,71.18c-149.75,0-194.33-71.18-194.33-71.18s22.19-29.16,79.64-61.97a208.14,208.14,0,0,1,54.56-21.38l.62,2.61a77.751,77.751,0,1,0,119.07-.67l.27-1.08A250.191,250.191,0,0,1,366.82,242.13Z" style="fill:#e48e66"/><path d="M311.07,222.69a77.744,77.744,0,1,1-119.07.67l-.62-2.61c38.88-9.38,80.84-8.66,119.96.86ZM269.5,274.94a17.68,17.68,0,1,0-17.68,17.68A17.671,17.671,0,0,0,269.5,274.94Z" style="fill:#f8ec7d"/><path d="M251.82,257.27a17.675,17.675,0,1,1-17.68,17.67A17.671,17.671,0,0,1,251.82,257.27Z" style="fill:#6fe3ff"/><path d="M468.666,229.36a6.974,6.974,0,0,1-4.431-1.584c-52.63-43.089-107.632-69.921-163.477-79.75-44.573-7.846-89.865-4.949-134.618,8.607C89.509,179.847,40.332,226.911,39.845,227.384a7,7,0,0,1-9.753-10.045c2.074-2.015,51.717-49.632,131.427-73.934,46.929-14.308,94.469-17.416,141.3-9.232,58.368,10.2,115.661,38.047,170.289,82.77a7,7,0,0,1-4.439,12.417Z" style="fill:#3fa9f5"/></svg>
