<svg height="442pt" viewBox="0 -31 442.69485 442" width="442pt" xmlns="http://www.w3.org/2000/svg"><path d="m340 81.6875v184.09375c0 18.316406-14.851562 33.167969-33.171875 33.167969h-273.65625c-18.320313 0-33.171875-14.851563-33.171875-33.167969v-184.09375zm0 0" fill="#e48e66"/><path d="m340 33.515625v48.171875h-340v-48.171875c0-18.316406 14.851562-33.167969 33.171875-33.167969h273.65625c18.320313 0 33.171875 14.851563 33.171875 33.167969zm-177.613281 8.046875c.027343-6.945312-5.582031-12.59375-12.527344-12.613281-6.941406-.023438-12.589844 5.585937-12.609375 12.53125-.019531 6.941406 5.59375 12.585937 12.535156 12.601562 6.9375.015625 12.574219-5.585937 12.601563-12.519531zm-56.449219-.175781c.023438-6.9375-5.582031-12.582031-12.523438-12.605469-6.9375-.023438-12.582031 5.585938-12.601562 12.527344-.023438 6.9375 5.585938 12.582031 12.527344 12.601562 6.9375.023438 12.582031-5.585937 12.597656-12.523437zm-56.4375-.179688c.019531-6.941406-5.589844-12.582031-12.53125-12.597656-6.9375-.019531-12.578125 5.589844-12.597656 12.527344-.019532 6.9375 5.589844 12.578125 12.527344 12.597656 6.941406.023437 12.582031-5.589844 12.601562-12.527344zm0 0" fill="#f8ec7d"/><g fill="#e48e66"><path d="m149.855469 28.957031c6.941406.023438 12.546875 5.664063 12.523437 12.605469-.023437 6.9375-5.664062 12.542969-12.605468 12.523438-6.9375-.023438-12.542969-5.667969-12.519532-12.609376.027344-6.933593 5.667969-12.539062 12.601563-12.519531zm0 0"/><path d="m93.417969 28.78125c6.9375.019531 12.546875 5.664062 12.527343 12.601562-.019531 6.941407-5.664062 12.550782-12.605468 12.527344-6.9375-.023437-12.546875-5.667968-12.523438-12.605468.019532-6.9375 5.660156-12.546876 12.601563-12.523438zm0 0"/><path d="m36.976562 28.601562c6.941407.019532 12.550782 5.664063 12.53125 12.605469-.019531 6.941407-5.664062 12.550781-12.605468 12.527344-6.941406-.019531-12.550782-5.664063-12.53125-12.605469.007812-3.332031 1.34375-6.527344 3.707031-8.875 2.363281-2.351562 5.566406-3.664062 8.898437-3.652344zm0 0"/></g><path d="m337.71875 169.402344c54.492188.015625 99.917969 41.707031 104.589844 96 4.671875 54.289062-32.964844 103.132812-86.652344 112.453125-53.6875 9.320312-105.582031-23.972657-119.484375-76.660157-.191406-.742187-.382813-1.492187-.5625-2.242187-7.480469-31.238281-.261719-64.183594 19.59375-89.433594 19.859375-25.246093 50.175781-40.027343 82.296875-40.117187zm75 105s-33.578125-45.980469-75-45.980469c-41.417969 0-75 45.980469-75 45.980469s33.582031 45.992187 75 45.992187c41.421875 0 75-45.992187 75-45.992187zm0 0" fill="#6fe3ff"/><path d="m337.71875 228.421875c41.421875 0 75 45.980469 75 45.980469s-33.578125 45.992187-75 45.992187c-41.417969 0-75-45.992187-75-45.992187s33.582031-45.980469 75-45.980469zm28 45.980469c0-15.464844-12.535156-28-28-28-15.460938 0-28 12.535156-28 28s12.539062 28 28 28c15.464844 0 28-12.535156 28-28zm0 0" fill="#6fe3ff"/><path d="m365.71875 274.402344c0 15.464844-12.535156 28-28 28-15.460938 0-28-12.535156-28-28s12.539062-28 28-28c15.464844 0 28 12.535156 28 28zm0 0" fill="#6fe3ff"/><path d="m337.71875 327.394531c-44.460938 0-79.199219-46.867187-80.652344-48.863281-1.796875-2.460938-1.796875-5.796875 0-8.257812 1.457032-1.992188 36.191406-48.851563 80.652344-48.851563 44.464844 0 79.203125 46.859375 80.65625 48.851563 1.796875 2.460937 1.796875 5.796874 0 8.257812-1.457031 1.996094-36.191406 48.863281-80.65625 48.863281zm-66.035156-52.992187c9.078125 10.792968 35.710937 38.992187 66.035156 38.992187 30.417969 0 56.984375-28.1875 66.042969-38.984375-9.078125-10.789062-35.714844-38.988281-66.042969-38.988281s-56.949219 28.1875-66.035156 38.980469zm0 0" fill="#2561a1"/><path d="m337.71875 309.402344c-19.328125 0-35-15.667969-35-35 0-19.328125 15.671875-35 35-35 19.332031 0 35 15.671875 35 35-.019531 19.320312-15.679688 34.980468-35 35zm0-56c-11.597656 0-21 9.402344-21 21s9.402344 21 21 21 21-9.402344 21-21c-.011719-11.589844-9.40625-20.984375-21-21zm0 0" fill="#2561a1"/></svg>